<?xml version="1.0" standalone="no"?>
<!DOCTYPE svg PUBLIC "-//W3C//DTD SVG 20010904//EN"
 "http://www.w3.org/TR/2001/REC-SVG-20010904/DTD/svg10.dtd">
<svg version="1.0" xmlns="http://www.w3.org/2000/svg"
 width="232.000000pt" height="232.000000pt" viewBox="0 0 232.000000 232.000000"
 preserveAspectRatio="xMidYMid meet">
<metadata>
Created by potrace 1.11, written by Peter Selinger 2001-2013
</metadata>
<g transform="translate(0.000000,232.000000) scale(0.100000,-0.100000)"
fill="#000000" stroke="none">
<path d="M882 2310 c-46 -5 -90 -14 -97 -20 -8 -6 -76 -29 -152 -51 -185 -53
-300 -112 -456 -236 -53 -43 -74 -67 -93 -111 -24 -53 -26 -65 -21 -167 4
-105 6 -113 41 -172 36 -61 36 -62 36 -178 0 -117 6 -150 52 -295 21 -66 70
-147 138 -230 61 -73 97 -149 115 -238 29 -147 104 -287 187 -348 101 -76 162
-104 224 -104 51 0 60 -4 110 -44 30 -25 62 -47 72 -50 213 -63 197 -61 377
-58 239 3 258 8 383 103 56 44 105 79 108 79 2 0 0 -9 -6 -21 -7 -11 -10 -23
-7 -25 6 -7 121 61 184 109 39 29 56 50 65 78 6 22 17 44 25 50 9 8 13 38 13
98 0 141 20 360 40 451 11 47 27 119 36 161 l16 76 -31 102 c-62 200 -131 306
-252 387 -30 21 -57 51 -79 90 -100 178 -222 297 -380 373 -36 17 -112 67
-169 113 l-104 82 -146 2 c-80 1 -183 -1 -229 -6z m1283 -1818 c-5 -69 -11
-98 -24 -107 -34 -29 -174 -126 -176 -123 -1 2 43 90 99 197 113 217 115 218
101 33z"/>
</g>
</svg>
